<svg xmlns="http://www.w3.org/2000/svg" xmlns:xlink="http://www.w3.org/1999/xlink" width="500" zoomAndPan="magnify" viewBox="0 0 375 374.999991" height="500" preserveAspectRatio="xMidYMid meet" version="1.0"><defs><clipPath id="eaf4f6df9a"><path d="M 114 111 L 161 111 L 161 157 L 114 157 Z M 114 111 " clip-rule="nonzero"/></clipPath><clipPath id="45eec5bf70"><path d="M 109.917969 118.367188 L 154.796875 103.578125 L 168.410156 144.890625 L 123.535156 159.679688 Z M 109.917969 118.367188 " clip-rule="nonzero"/></clipPath><clipPath id="cdf77975eb"><path d="M 109.917969 118.367188 L 154.796875 103.578125 L 168.410156 144.890625 L 123.535156 159.679688 Z M 109.917969 118.367188 " clip-rule="nonzero"/></clipPath><clipPath id="79ca1554f0"><path d="M 245 88 L 279 88 L 279 122 L 245 122 Z M 245 88 " clip-rule="nonzero"/></clipPath><clipPath id="9739874d65"><path d="M 241.933594 93.957031 L 273.988281 83.394531 L 283.847656 113.3125 L 251.792969 123.875 Z M 241.933594 93.957031 " clip-rule="nonzero"/></clipPath><clipPath id="4bf8d418b1"><path d="M 241.933594 93.957031 L 273.988281 83.394531 L 283.847656 113.3125 L 251.792969 123.875 Z M 241.933594 93.957031 " clip-rule="nonzero"/></clipPath><clipPath id="f386210c91"><path d="M 190 230 L 235 230 L 235 275 L 190 275 Z M 190 230 " clip-rule="nonzero"/></clipPath><clipPath id="a18242d0e4"><path d="M 197.136719 221.851562 L 240.667969 238.195312 L 225.640625 278.21875 L 182.109375 261.871094 Z M 197.136719 221.851562 " clip-rule="nonzero"/></clipPath><clipPath id="be12cd49e3"><path d="M 197.136719 221.851562 L 240.667969 238.195312 L 225.640625 278.21875 L 182.109375 261.871094 Z M 197.136719 221.851562 " clip-rule="nonzero"/></clipPath><clipPath id="b179737963"><path d="M 106 115 L 257 115 L 257 287 L 106 287 Z M 106 115 " clip-rule="nonzero"/></clipPath><clipPath id="7d9e58f827"><path d="M 91.425781 125.292969 L 253.597656 111.601562 L 267.351562 274.519531 L 105.179688 288.210938 Z M 91.425781 125.292969 " clip-rule="nonzero"/></clipPath><clipPath id="3d9ae83ac6"><path d="M 91.425781 125.292969 L 253.597656 111.601562 L 267.351562 274.519531 L 105.179688 288.210938 Z M 91.425781 125.292969 " clip-rule="nonzero"/></clipPath><clipPath id="aac69d433c"><path d="M 210 145 L 227 145 L 227 162 L 210 162 Z M 210 145 " clip-rule="nonzero"/></clipPath><clipPath id="b4882e12a1"><path d="M 91.425781 125.292969 L 253.597656 111.601562 L 267.351562 274.519531 L 105.179688 288.210938 Z M 91.425781 125.292969 " clip-rule="nonzero"/></clipPath><clipPath id="e3dc8fc366"><path d="M 91.425781 125.292969 L 253.597656 111.601562 L 267.351562 274.519531 L 105.179688 288.210938 Z M 91.425781 125.292969 " clip-rule="nonzero"/></clipPath></defs><rect x="-37.5" width="450" fill="#ffffff" y="-37.499999" height="449.999989" fill-opacity="1"/><rect x="-37.5" width="450" fill="#ffffff" y="-37.499999" height="449.999989" fill-opacity="1"/><g clip-path="url(#eaf4f6df9a)"><g clip-path="url(#45eec5bf70)"><g clip-path="url(#cdf77975eb)"><path fill="#fab406" d="M 131.226562 154.492188 C 131.054688 153.855469 131.050781 153.273438 131.027344 152.695312 C 130.925781 151.078125 131.027344 149.46875 130.859375 147.867188 C 130.722656 146.511719 130.761719 145.175781 130.757812 143.828125 C 130.761719 143 130.667969 142.171875 130.617188 141.339844 C 130.617188 141.152344 130.539062 141.03125 130.363281 140.996094 C 129.390625 140.765625 128.5625 140.214844 127.675781 139.800781 C 126.417969 139.214844 125.128906 138.707031 123.828125 138.238281 C 122.582031 137.792969 121.378906 137.257812 120.148438 136.753906 C 119.152344 136.332031 118.160156 135.894531 117.207031 135.359375 C 116.839844 135.15625 116.476562 134.953125 116.203125 134.628906 C 116.085938 134.496094 115.921875 134.433594 115.777344 134.351562 C 115.164062 134.015625 114.851562 133.316406 115.027344 132.734375 C 115.085938 132.546875 115.203125 132.398438 115.328125 132.265625 C 115.664062 131.914062 116.0625 131.640625 116.527344 131.488281 C 116.667969 131.441406 116.792969 131.386719 116.910156 131.300781 C 117.601562 130.796875 118.363281 130.464844 119.179688 130.183594 C 120.292969 129.792969 121.410156 129.410156 122.53125 129.042969 C 123.230469 128.8125 123.921875 128.558594 124.632812 128.359375 C 125.941406 127.976562 127.238281 127.609375 128.554688 127.25 C 129.015625 127.121094 129.496094 127.058594 129.972656 126.984375 C 130.082031 126.960938 130.144531 126.925781 130.140625 126.808594 C 130.148438 125.886719 130.367188 124.992188 130.472656 124.085938 C 130.605469 123 130.699219 121.90625 130.730469 120.808594 C 130.804688 118.636719 130.964844 116.480469 131.21875 114.320312 C 131.28125 113.75 131.394531 113.1875 131.496094 112.617188 C 131.738281 111.175781 132.894531 110.996094 133.875 111.464844 C 134.484375 111.761719 134.976562 112.199219 135.410156 112.722656 C 136.941406 114.535156 138.597656 116.234375 140.152344 118.015625 C 141.34375 119.378906 142.46875 120.800781 143.621094 122.199219 C 143.765625 122.378906 143.894531 122.445312 144.152344 122.394531 C 145.082031 122.207031 146.027344 122.074219 146.964844 121.910156 C 147.480469 121.8125 148 121.675781 148.503906 121.546875 C 149.414062 121.292969 150.316406 121.019531 151.226562 120.78125 C 152.226562 120.519531 153.242188 120.304688 154.25 120.058594 C 154.589844 119.96875 154.945312 119.925781 155.277344 119.769531 C 155.6875 119.570312 156.144531 119.613281 156.582031 119.5625 C 157.363281 119.472656 158.152344 119.367188 158.953125 119.367188 C 159.410156 119.371094 159.820312 119.5 160.160156 119.839844 C 160.582031 120.253906 160.699219 120.75 160.460938 121.296875 C 160.167969 121.964844 159.757812 122.566406 159.3125 123.140625 C 157.695312 125.265625 155.738281 127.078125 153.9375 129.046875 C 153.296875 129.746094 152.664062 130.46875 152.023438 131.167969 C 151.882812 131.324219 151.859375 131.425781 151.996094 131.597656 C 153.023438 132.824219 153.71875 134.253906 154.402344 135.675781 C 155.265625 137.492188 156.132812 139.320312 156.964844 141.160156 C 157.507812 142.34375 158.066406 143.523438 158.398438 144.785156 C 158.546875 145.34375 158.808594 145.855469 159.050781 146.371094 C 159.371094 147.054688 159.328125 147.644531 158.898438 148.046875 C 158.667969 148.253906 158.394531 148.332031 158.09375 148.359375 C 157.25 148.445312 156.472656 148.261719 155.6875 147.972656 C 154.707031 147.613281 153.828125 147.042969 152.871094 146.640625 C 150.449219 145.601562 148.070312 144.464844 145.722656 143.253906 C 145.566406 143.175781 145.449219 143.175781 145.316406 143.292969 C 145.035156 143.550781 144.746094 143.800781 144.488281 144.101562 C 143.707031 145.003906 142.976562 145.9375 142.128906 146.765625 C 140.910156 147.96875 139.847656 149.308594 138.785156 150.652344 C 137.519531 152.238281 136.199219 153.785156 134.796875 155.25 C 134.457031 155.601562 134.105469 155.945312 133.71875 156.25 C 132.945312 156.875 132.105469 156.6875 131.710938 155.777344 C 131.546875 155.316406 131.429688 154.855469 131.226562 154.492188 Z M 131.226562 154.492188 " fill-opacity="1" fill-rule="nonzero"/></g></g></g><g clip-path="url(#79ca1554f0)"><g clip-path="url(#9739874d65)"><g clip-path="url(#4bf8d418b1)"><path fill="#ffc31f" d="M 257.136719 119.738281 C 257.015625 119.285156 257.011719 118.867188 256.996094 118.457031 C 256.921875 117.304688 256.996094 116.15625 256.875 115.011719 C 256.777344 114.046875 256.804688 113.089844 256.804688 112.128906 C 256.804688 111.539062 256.738281 110.949219 256.703125 110.355469 C 256.703125 110.21875 256.648438 110.132812 256.519531 110.109375 C 255.828125 109.945312 255.238281 109.550781 254.605469 109.257812 C 253.707031 108.835938 252.785156 108.476562 251.859375 108.140625 C 250.96875 107.820312 250.109375 107.4375 249.234375 107.082031 C 248.519531 106.777344 247.8125 106.464844 247.132812 106.085938 C 246.871094 105.941406 246.613281 105.796875 246.414062 105.5625 C 246.335938 105.472656 246.214844 105.425781 246.113281 105.367188 C 245.675781 105.125 245.453125 104.628906 245.578125 104.210938 C 245.621094 104.078125 245.703125 103.972656 245.792969 103.878906 C 246.035156 103.628906 246.316406 103.429688 246.648438 103.320312 C 246.75 103.289062 246.839844 103.25 246.921875 103.191406 C 247.414062 102.832031 247.960938 102.59375 248.539062 102.390625 C 249.335938 102.113281 250.132812 101.84375 250.929688 101.578125 C 251.429688 101.414062 251.925781 101.234375 252.433594 101.09375 C 253.367188 100.820312 254.292969 100.554688 255.230469 100.296875 C 255.558594 100.207031 255.902344 100.160156 256.242188 100.109375 C 256.320312 100.089844 256.367188 100.070312 256.363281 99.984375 C 256.367188 99.328125 256.523438 98.6875 256.601562 98.039062 C 256.695312 97.265625 256.761719 96.488281 256.785156 95.703125 C 256.835938 94.152344 256.953125 92.613281 257.132812 91.070312 C 257.179688 90.664062 257.257812 90.265625 257.328125 89.855469 C 257.5 88.828125 258.328125 88.699219 259.027344 89.035156 C 259.464844 89.246094 259.8125 89.558594 260.125 89.933594 C 261.214844 91.226562 262.398438 92.4375 263.507812 93.710938 C 264.355469 94.683594 265.160156 95.695312 265.984375 96.695312 C 266.085938 96.824219 266.175781 96.871094 266.359375 96.835938 C 267.023438 96.699219 267.699219 96.605469 268.367188 96.488281 C 268.738281 96.417969 269.105469 96.320312 269.46875 96.226562 C 270.117188 96.046875 270.757812 95.855469 271.410156 95.683594 C 272.125 95.496094 272.847656 95.34375 273.566406 95.167969 C 273.808594 95.105469 274.0625 95.070312 274.300781 94.960938 C 274.59375 94.820312 274.917969 94.847656 275.230469 94.8125 C 275.789062 94.75 276.351562 94.675781 276.925781 94.675781 C 277.25 94.679688 277.542969 94.769531 277.785156 95.011719 C 278.085938 95.304688 278.167969 95.660156 278 96.050781 C 277.789062 96.527344 277.496094 96.957031 277.179688 97.367188 C 276.027344 98.882812 274.628906 100.175781 273.34375 101.582031 C 272.886719 102.082031 272.4375 102.597656 271.976562 103.097656 C 271.878906 103.207031 271.859375 103.28125 271.960938 103.402344 C 272.691406 104.277344 273.1875 105.296875 273.675781 106.3125 C 274.292969 107.609375 274.910156 108.914062 275.503906 110.226562 C 275.894531 111.070312 276.289062 111.910156 276.527344 112.8125 C 276.632812 113.210938 276.820312 113.574219 276.992188 113.945312 C 277.222656 114.433594 277.191406 114.851562 276.886719 115.140625 C 276.71875 115.289062 276.527344 115.34375 276.3125 115.363281 C 275.710938 115.425781 275.152344 115.292969 274.59375 115.085938 C 273.894531 114.832031 273.265625 114.421875 272.582031 114.136719 C 270.855469 113.394531 269.15625 112.582031 267.484375 111.71875 C 267.371094 111.664062 267.285156 111.664062 267.195312 111.746094 C 266.992188 111.933594 266.785156 112.109375 266.601562 112.324219 C 266.046875 112.96875 265.523438 113.632812 264.917969 114.226562 C 264.050781 115.082031 263.289062 116.039062 262.53125 116.996094 C 261.628906 118.132812 260.6875 119.234375 259.683594 120.28125 C 259.445312 120.53125 259.191406 120.773438 258.914062 120.992188 C 258.363281 121.441406 257.765625 121.304688 257.484375 120.65625 C 257.367188 120.328125 257.28125 119.996094 257.136719 119.738281 Z M 257.136719 119.738281 " fill-opacity="1" fill-rule="nonzero"/></g></g></g><g clip-path="url(#f386210c91)"><g clip-path="url(#a18242d0e4)"><g clip-path="url(#be12cd49e3)"><path fill="#ffc31f" d="M 191.246094 262.273438 C 191.5 261.6875 191.855469 261.242188 192.191406 260.789062 C 193.101562 259.5 194.160156 258.34375 195.011719 257.019531 C 195.734375 255.910156 196.578125 254.917969 197.402344 253.894531 C 197.90625 253.269531 198.339844 252.582031 198.8125 251.921875 C 198.929688 251.777344 198.945312 251.640625 198.828125 251.503906 C 198.234375 250.738281 197.941406 249.8125 197.519531 248.960938 C 196.925781 247.746094 196.257812 246.574219 195.554688 245.425781 C 194.882812 244.324219 194.296875 243.183594 193.671875 242.050781 C 193.171875 241.117188 192.683594 240.179688 192.289062 239.195312 C 192.136719 238.816406 191.980469 238.441406 191.972656 238.027344 C 191.964844 237.855469 191.878906 237.707031 191.820312 237.554688 C 191.558594 236.925781 191.746094 236.207031 192.238281 235.871094 C 192.394531 235.765625 192.574219 235.726562 192.75 235.699219 C 193.222656 235.640625 193.691406 235.675781 194.136719 235.839844 C 194.273438 235.890625 194.398438 235.929688 194.539062 235.933594 C 195.375 235.976562 196.15625 236.1875 196.945312 236.472656 C 198.027344 236.855469 199.109375 237.246094 200.183594 237.652344 C 200.855469 237.902344 201.535156 238.136719 202.195312 238.417969 C 203.421875 238.925781 204.632812 239.441406 205.851562 239.96875 C 206.277344 240.152344 206.683594 240.398438 207.089844 240.632812 C 207.1875 240.683594 207.253906 240.695312 207.324219 240.605469 C 207.890625 239.910156 208.605469 239.363281 209.238281 238.738281 C 210.003906 238 210.742188 237.226562 211.433594 236.414062 C 212.816406 234.808594 214.253906 233.269531 215.769531 231.785156 C 216.164062 231.390625 216.59375 231.035156 217.015625 230.660156 C 218.082031 229.714844 219.070312 230.285156 219.527344 231.238281 C 219.808594 231.839844 219.914062 232.46875 219.925781 233.132812 C 219.976562 235.441406 220.199219 237.746094 220.289062 240.042969 C 220.359375 241.804688 220.347656 243.570312 220.367188 245.335938 C 220.367188 245.5625 220.425781 245.6875 220.652344 245.808594 C 221.472656 246.234375 222.273438 246.710938 223.082031 247.160156 C 223.535156 247.398438 224.011719 247.613281 224.472656 247.824219 C 225.316406 248.1875 226.167969 248.527344 227.007812 248.902344 C 227.925781 249.320312 228.828125 249.777344 229.742188 250.203125 C 230.054688 250.34375 230.351562 250.523438 230.699219 250.609375 C 231.128906 250.710938 231.453125 251.019531 231.8125 251.25 C 232.460938 251.660156 233.125 252.0625 233.734375 252.550781 C 234.074219 252.832031 234.308594 253.179688 234.359375 253.648438 C 234.429688 254.214844 234.210938 254.664062 233.699219 254.933594 C 233.066406 255.261719 232.390625 255.46875 231.703125 255.632812 C 229.179688 256.257812 226.585938 256.4375 224.019531 256.832031 C 223.105469 256.972656 222.179688 257.132812 221.265625 257.273438 C 221.066406 257.304688 220.984375 257.367188 220.988281 257.582031 C 221.015625 259.140625 220.671875 260.648438 220.324219 262.148438 C 219.867188 264.054688 219.40625 265.96875 218.914062 267.875 C 218.609375 269.101562 218.308594 270.335938 217.789062 271.5 C 217.5625 272.015625 217.449219 272.5625 217.316406 273.101562 C 217.144531 273.816406 216.75 274.234375 216.179688 274.28125 C 215.878906 274.296875 215.625 274.191406 215.378906 274.027344 C 214.683594 273.578125 214.207031 272.960938 213.789062 272.261719 C 213.265625 271.390625 212.945312 270.421875 212.464844 269.535156 C 211.261719 267.265625 210.148438 264.949219 209.109375 262.597656 C 209.039062 262.441406 208.945312 262.371094 208.777344 262.378906 C 208.402344 262.402344 208.03125 262.417969 207.652344 262.488281 C 206.511719 262.695312 205.386719 262.957031 204.234375 263.070312 C 202.578125 263.238281 200.953125 263.605469 199.328125 263.976562 C 197.394531 264.40625 195.453125 264.773438 193.492188 265.03125 C 193.019531 265.089844 192.542969 265.132812 192.0625 265.128906 C 191.09375 265.132812 190.570312 264.476562 190.828125 263.546875 C 190.984375 263.097656 191.179688 262.675781 191.246094 262.273438 Z M 191.246094 262.273438 " fill-opacity="1" fill-rule="nonzero"/></g></g></g><g clip-path="url(#b179737963)"><g clip-path="url(#7d9e58f827)"><g clip-path="url(#3d9ae83ac6)"><path fill="#5b5f97" d="M 254.84375 144.429688 C 243.882812 136.683594 227.164062 122.429688 220.121094 116.34375 C 219.675781 115.957031 219.171875 115.664062 218.617188 115.46875 C 218.0625 115.273438 217.492188 115.183594 216.902344 115.203125 C 216.3125 115.21875 215.75 115.34375 215.207031 115.578125 C 214.664062 115.808594 214.183594 116.132812 213.765625 116.542969 C 200.945312 129.132812 183.53125 141.734375 177.351562 146.085938 C 176.65625 146.578125 176.136719 147.210938 175.785156 147.988281 C 175.4375 148.761719 175.3125 149.574219 175.40625 150.421875 C 177.683594 171.242188 173.007812 194.050781 170.949219 202.6875 C 170.679688 203.816406 170.1875 204.832031 169.46875 205.742188 C 168.746094 206.648438 167.871094 207.363281 166.835938 207.882812 L 145.957031 218.359375 C 145.070312 218.804688 144.246094 219.34375 143.480469 219.976562 C 142.714844 220.609375 142.03125 221.320312 141.429688 222.109375 C 140.828125 222.898438 140.320312 223.746094 139.910156 224.648438 C 139.5 225.554688 139.199219 226.492188 139.003906 227.464844 L 135.113281 246.726562 C 134.757812 248.492188 133.953125 250.019531 132.691406 251.308594 C 128.464844 255.640625 116.074219 273.542969 106.675781 283.171875 C 104.917969 284.972656 107.21875 287.78125 109.335938 286.417969 C 121.28125 278.714844 136.449219 263.875 142.875 260.1875 C 144.039062 259.523438 145.007812 258.644531 145.78125 257.546875 C 146.554688 256.453125 147.058594 255.242188 147.296875 253.925781 C 148.425781 247.488281 150.472656 241.308594 151.9375 237.375 C 152.476562 235.929688 153.246094 234.621094 154.246094 233.449219 C 155.246094 232.277344 156.421875 231.3125 157.761719 230.554688 C 164.347656 226.851562 173.703125 222.730469 179.226562 220.390625 C 179.90625 220.105469 180.53125 219.730469 181.101562 219.269531 C 181.675781 218.804688 182.171875 218.273438 182.59375 217.671875 C 183.015625 217.066406 183.347656 216.417969 183.585938 215.722656 C 183.824219 215.027344 183.960938 214.3125 184 213.578125 C 184.921875 195.375 187.96875 177.539062 193.148438 160.066406 C 194.710938 154.792969 197.332031 150.113281 201.015625 146.027344 C 208.472656 137.867188 216.382812 136.945312 221.824219 137.667969 C 224.242188 137.980469 226.507812 138.75 228.617188 139.972656 C 230.730469 141.195312 232.523438 142.777344 233.996094 144.722656 C 241.667969 154.960938 231.28125 164.921875 231.28125 164.921875 C 225.980469 169.863281 217.097656 169.144531 213.023438 168.488281 C 212.761719 168.445312 212.503906 168.460938 212.246094 168.535156 C 211.992188 168.609375 211.761719 168.734375 211.5625 168.910156 C 211.363281 169.089844 211.214844 169.300781 211.109375 169.542969 C 211.007812 169.789062 210.960938 170.046875 210.972656 170.3125 L 211.199219 175.214844 C 211.226562 175.816406 211.492188 176.285156 211.996094 176.613281 L 224.476562 184.726562 C 224.757812 184.910156 225.050781 185.0625 225.359375 185.191406 C 225.667969 185.316406 225.988281 185.414062 226.3125 185.480469 C 226.640625 185.546875 226.972656 185.582031 227.304688 185.585938 C 227.640625 185.589844 227.96875 185.5625 228.296875 185.503906 C 228.628906 185.445312 228.949219 185.359375 229.257812 185.238281 C 229.570312 185.121094 229.871094 184.972656 230.152344 184.800781 C 230.4375 184.625 230.703125 184.425781 230.949219 184.199219 C 231.199219 183.976562 231.421875 183.730469 231.621094 183.460938 L 255.902344 151.101562 C 256.089844 150.851562 256.253906 150.582031 256.390625 150.296875 C 256.523438 150.011719 256.628906 149.714844 256.707031 149.410156 C 256.78125 149.105469 256.824219 148.792969 256.839844 148.480469 C 256.851562 148.164062 256.835938 147.851562 256.785156 147.539062 C 256.734375 147.230469 256.65625 146.925781 256.546875 146.632812 C 256.4375 146.335938 256.296875 146.054688 256.128906 145.789062 C 255.964844 145.519531 255.773438 145.273438 255.554688 145.042969 C 255.339844 144.8125 255.101562 144.609375 254.84375 144.429688 Z M 254.84375 144.429688 " fill-opacity="1" fill-rule="nonzero"/></g></g></g><g clip-path="url(#aac69d433c)"><g clip-path="url(#b4882e12a1)"><g clip-path="url(#e3dc8fc366)"><path fill="#5b5f97" d="M 219.046875 161.90625 C 219.589844 161.882812 220.125 161.804688 220.652344 161.675781 C 221.179688 161.542969 221.6875 161.363281 222.179688 161.132812 C 222.671875 160.902344 223.132812 160.625 223.570312 160.304688 C 224.007812 159.984375 224.410156 159.621094 224.773438 159.222656 C 225.140625 158.820312 225.464844 158.386719 225.746094 157.921875 C 226.023438 157.457031 226.257812 156.972656 226.441406 156.460938 C 226.625 155.949219 226.757812 155.425781 226.839844 154.890625 C 226.921875 154.355469 226.949219 153.816406 226.925781 153.273438 C 226.898438 152.730469 226.824219 152.195312 226.691406 151.667969 C 226.5625 151.144531 226.382812 150.632812 226.152344 150.140625 C 225.921875 149.652344 225.644531 149.1875 225.324219 148.75 C 225 148.3125 224.640625 147.910156 224.238281 147.546875 C 223.839844 147.179688 223.40625 146.859375 222.941406 146.578125 C 222.476562 146.296875 221.988281 146.0625 221.480469 145.878906 C 220.96875 145.695312 220.445312 145.5625 219.910156 145.480469 C 219.371094 145.398438 218.832031 145.371094 218.292969 145.394531 C 217.75 145.421875 217.214844 145.5 216.6875 145.628906 C 216.160156 145.757812 215.652344 145.9375 215.160156 146.167969 C 214.667969 146.398438 214.207031 146.675781 213.769531 146.996094 C 213.332031 147.320312 212.929688 147.679688 212.566406 148.082031 C 212.199219 148.484375 211.875 148.914062 211.59375 149.378906 C 211.316406 149.84375 211.082031 150.332031 210.898438 150.84375 C 210.714844 151.351562 210.582031 151.875 210.5 152.410156 C 210.417969 152.949219 210.390625 153.488281 210.414062 154.03125 C 210.4375 154.570312 210.515625 155.105469 210.648438 155.632812 C 210.777344 156.160156 210.957031 156.667969 211.1875 157.160156 C 211.417969 157.652344 211.695312 158.117188 212.015625 158.550781 C 212.339844 158.988281 212.699219 159.390625 213.101562 159.757812 C 213.5 160.121094 213.933594 160.445312 214.398438 160.726562 C 214.863281 161.007812 215.351562 161.238281 215.859375 161.421875 C 216.371094 161.609375 216.894531 161.742188 217.429688 161.820312 C 217.96875 161.902344 218.507812 161.929688 219.046875 161.90625 Z M 219.046875 161.90625 " fill-opacity="1" fill-rule="nonzero"/></g></g></g></svg>