<svg xmlns="http://www.w3.org/2000/svg" xmlns:xlink="http://www.w3.org/1999/xlink" width="55" zoomAndPan="magnify" viewBox="0 0 375 374.999991" height="55" preserveAspectRatio="xMidYMid meet" version="1.0"><path fill="#5b5f97" d="M 163.382812 193.007812 L 168.941406 177.347656 C 168.941406 177.347656 203.957031 180.285156 231.011719 197.046875 C 231.011719 197.046875 223.796875 121.96875 209.253906 102.578125 C 196.222656 85.203125 136.863281 56.238281 133.453125 60.160156 C 131.421875 62.492188 153.007812 89.1875 153.007812 89.1875 L 158.519531 83.679688 L 154.640625 91.675781 L 169.308594 110.101562 C 171.898438 113.355469 175.949219 115.089844 180.089844 114.71875 L 195.941406 113.296875 L 179.28125 117.636719 C 175.085938 118.726562 171.773438 121.933594 170.542969 126.09375 L 150.527344 193.710938 C 150.527344 193.710938 99.804688 187.785156 91.367188 204.660156 C 88.105469 211.183594 93.789062 236.128906 115.4375 243.820312 C 103.046875 236.339844 99.839844 219.167969 106.578125 213.601562 C 125.636719 197.859375 220.433594 222.132812 243.34375 247.492188 C 260.671875 266.679688 256.851562 305.226562 197.039062 293.398438 C 190.890625 292.183594 184.632812 290.328125 178.402344 287.984375 C 221.457031 311.621094 274.433594 318.753906 283.644531 277.316406 C 286.890625 262.730469 278.894531 247.0625 263.375 234.070312 C 255.800781 227.734375 222.242188 201.027344 163.382812 193.007812 " fill-opacity="1" fill-rule="nonzero"/></svg>