<svg xmlns="http://www.w3.org/2000/svg" xmlns:xlink="http://www.w3.org/1999/xlink" width="51" zoomAndPan="magnify" viewBox="0 0 375 374.999991" height="55" preserveAspectRatio="xMidYMid meet" version="1.0"><defs><clipPath id="101a7ce7d3"><path d="M 114 113 L 160 113 L 160 158 L 114 158 Z M 114 113 " clip-rule="nonzero"/></clipPath><clipPath id="18d88c75d1"><path d="M 109.734375 120.0625 L 154.609375 105.273438 L 168.222656 146.585938 L 123.347656 161.375 Z M 109.734375 120.0625 " clip-rule="nonzero"/></clipPath><clipPath id="63196dfc68"><path d="M 109.734375 120.0625 L 154.609375 105.273438 L 168.222656 146.585938 L 123.347656 161.375 Z M 109.734375 120.0625 " clip-rule="nonzero"/></clipPath><clipPath id="6e2900dbfd"><path d="M 244 90 L 277 90 L 277 123 L 244 123 Z M 244 90 " clip-rule="nonzero"/></clipPath><clipPath id="48403fba67"><path d="M 240.429688 95.898438 L 272.484375 85.335938 L 282.109375 114.539062 L 250.054688 125.105469 Z M 240.429688 95.898438 " clip-rule="nonzero"/></clipPath><clipPath id="507ac97657"><path d="M 240.429688 95.898438 L 272.484375 85.335938 L 282.109375 114.539062 L 250.054688 125.105469 Z M 240.429688 95.898438 " clip-rule="nonzero"/></clipPath><clipPath id="456dee869f"><path d="M 189 230 L 233 230 L 233 275 L 189 275 Z M 189 230 " clip-rule="nonzero"/></clipPath><clipPath id="e3f3bc7b6f"><path d="M 196.078125 222.511719 L 238.910156 238.59375 L 224.144531 277.914062 L 181.3125 261.832031 Z M 196.078125 222.511719 " clip-rule="nonzero"/></clipPath><clipPath id="700ff487bd"><path d="M 196.078125 222.511719 L 238.910156 238.59375 L 224.144531 277.914062 L 181.3125 261.832031 Z M 196.078125 222.511719 " clip-rule="nonzero"/></clipPath><clipPath id="7ea4f77118"><path d="M 105 116 L 256 116 L 256 287 L 105 287 Z M 105 116 " clip-rule="nonzero"/></clipPath><clipPath id="3a6858e150"><path d="M 91.425781 126.917969 L 252.105469 113.355469 L 265.667969 274.03125 L 104.992188 287.597656 Z M 91.425781 126.917969 " clip-rule="nonzero"/></clipPath><clipPath id="7097315009"><path d="M 91.425781 126.917969 L 252.105469 113.355469 L 265.667969 274.03125 L 104.992188 287.597656 Z M 91.425781 126.917969 " clip-rule="nonzero"/></clipPath><clipPath id="2a6b535d5e"><path d="M 209 146 L 226 146 L 226 164 L 209 164 Z M 209 146 " clip-rule="nonzero"/></clipPath><clipPath id="bea6b6db2e"><path d="M 91.425781 126.917969 L 252.105469 113.355469 L 265.667969 274.03125 L 104.992188 287.597656 Z M 91.425781 126.917969 " clip-rule="nonzero"/></clipPath><clipPath id="df877c98b9"><path d="M 91.425781 126.917969 L 252.105469 113.355469 L 265.667969 274.03125 L 104.992188 287.597656 Z M 91.425781 126.917969 " clip-rule="nonzero"/></clipPath></defs><g clip-path="url(#101a7ce7d3)"><g clip-path="url(#18d88c75d1)"><g clip-path="url(#63196dfc68)"><path fill="#fab406" d="M 130.824219 155.828125 C 130.652344 155.199219 130.652344 154.621094 130.628906 154.050781 C 130.527344 152.453125 130.628906 150.855469 130.460938 149.269531 C 130.328125 147.929688 130.363281 146.605469 130.359375 145.269531 C 130.363281 144.453125 130.269531 143.632812 130.222656 142.808594 C 130.222656 142.621094 130.148438 142.503906 129.96875 142.46875 C 129.007812 142.242188 128.1875 141.695312 127.308594 141.285156 C 126.066406 140.703125 124.789062 140.203125 123.5 139.738281 C 122.265625 139.296875 121.074219 138.765625 119.859375 138.269531 C 118.871094 137.847656 117.886719 137.414062 116.945312 136.886719 C 116.582031 136.6875 116.222656 136.488281 115.949219 136.164062 C 115.835938 136.035156 115.671875 135.96875 115.527344 135.886719 C 114.921875 135.554688 114.613281 134.867188 114.789062 134.289062 C 114.84375 134.101562 114.964844 133.957031 115.085938 133.824219 C 115.417969 133.476562 115.816406 133.203125 116.273438 133.054688 C 116.410156 133.007812 116.535156 132.953125 116.648438 132.871094 C 117.335938 132.371094 118.089844 132.039062 118.898438 131.761719 C 120 131.375 121.105469 131 122.214844 130.632812 C 122.910156 130.40625 123.59375 130.15625 124.296875 129.960938 C 125.59375 129.582031 126.878906 129.214844 128.179688 128.859375 C 128.636719 128.730469 129.109375 128.667969 129.582031 128.597656 C 129.695312 128.570312 129.753906 128.539062 129.75 128.421875 C 129.757812 127.511719 129.972656 126.621094 130.078125 125.726562 C 130.210938 124.652344 130.304688 123.570312 130.335938 122.484375 C 130.40625 120.332031 130.566406 118.199219 130.820312 116.058594 C 130.882812 115.492188 130.992188 114.9375 131.089844 114.371094 C 131.332031 112.945312 132.476562 112.769531 133.445312 113.230469 C 134.050781 113.527344 134.539062 113.957031 134.96875 114.476562 C 136.484375 116.273438 138.125 117.953125 139.664062 119.71875 C 140.839844 121.066406 141.953125 122.472656 143.097656 123.859375 C 143.238281 124.035156 143.367188 124.101562 143.621094 124.050781 C 144.542969 123.867188 145.480469 123.734375 146.40625 123.570312 C 146.917969 123.472656 147.429688 123.339844 147.933594 123.210938 C 148.832031 122.960938 149.722656 122.691406 150.625 122.453125 C 151.617188 122.199219 152.625 121.984375 153.617188 121.738281 C 153.957031 121.652344 154.308594 121.605469 154.636719 121.453125 C 155.042969 121.257812 155.496094 121.296875 155.929688 121.25 C 156.703125 121.160156 157.484375 121.054688 158.277344 121.054688 C 158.726562 121.058594 159.136719 121.1875 159.472656 121.523438 C 159.890625 121.929688 160.003906 122.425781 159.769531 122.964844 C 159.480469 123.625 159.070312 124.222656 158.632812 124.792969 C 157.03125 126.890625 155.09375 128.691406 153.3125 130.636719 C 152.675781 131.332031 152.050781 132.046875 151.414062 132.738281 C 151.277344 132.890625 151.25 132.996094 151.390625 133.164062 C 152.402344 134.375 153.09375 135.792969 153.773438 137.199219 C 154.625 139 155.480469 140.8125 156.308594 142.632812 C 156.847656 143.800781 157.394531 144.96875 157.726562 146.21875 C 157.871094 146.773438 158.132812 147.277344 158.375 147.792969 C 158.691406 148.46875 158.648438 149.050781 158.222656 149.449219 C 157.996094 149.65625 157.722656 149.730469 157.425781 149.757812 C 156.589844 149.84375 155.820312 149.660156 155.042969 149.375 C 154.074219 149.019531 153.203125 148.457031 152.253906 148.058594 C 149.859375 147.027344 147.5 145.902344 145.179688 144.703125 C 145.023438 144.625 144.90625 144.628906 144.777344 144.742188 C 144.496094 145 144.210938 145.246094 143.953125 145.542969 C 143.183594 146.4375 142.460938 147.359375 141.617188 148.183594 C 140.414062 149.371094 139.363281 150.699219 138.308594 152.027344 C 137.054688 153.597656 135.75 155.128906 134.359375 156.582031 C 134.023438 156.925781 133.675781 157.265625 133.292969 157.570312 C 132.527344 158.191406 131.695312 158.003906 131.304688 157.101562 C 131.144531 156.648438 131.027344 156.1875 130.824219 155.828125 Z M 130.824219 155.828125 " fill-opacity="1" fill-rule="nonzero"/></g></g></g><g clip-path="url(#6e2900dbfd)"><g clip-path="url(#48403fba67)"><g clip-path="url(#507ac97657)"><path fill="#ffc31f" d="M 255.480469 121.417969 C 255.359375 120.96875 255.355469 120.554688 255.339844 120.148438 C 255.269531 119.007812 255.339844 117.871094 255.222656 116.738281 C 255.125 115.78125 255.152344 114.835938 255.148438 113.882812 C 255.152344 113.300781 255.085938 112.714844 255.050781 112.128906 C 255.050781 111.992188 254.996094 111.910156 254.871094 111.882812 C 254.183594 111.722656 253.601562 111.332031 252.972656 111.042969 C 252.085938 110.625 251.175781 110.265625 250.253906 109.9375 C 249.375 109.621094 248.523438 109.242188 247.65625 108.886719 C 246.949219 108.589844 246.25 108.28125 245.578125 107.902344 C 245.320312 107.757812 245.0625 107.617188 244.867188 107.386719 C 244.785156 107.292969 244.671875 107.246094 244.566406 107.1875 C 244.132812 106.953125 243.914062 106.460938 244.039062 106.046875 C 244.078125 105.914062 244.164062 105.8125 244.25 105.714844 C 244.488281 105.46875 244.769531 105.273438 245.097656 105.167969 C 245.195312 105.132812 245.285156 105.097656 245.367188 105.035156 C 245.855469 104.679688 246.394531 104.445312 246.972656 104.246094 C 247.757812 103.96875 248.546875 103.703125 249.335938 103.441406 C 249.832031 103.277344 250.320312 103.097656 250.824219 102.960938 C 251.746094 102.6875 252.664062 102.429688 253.59375 102.171875 C 253.917969 102.082031 254.257812 102.039062 254.59375 101.988281 C 254.671875 101.96875 254.714844 101.945312 254.714844 101.863281 C 254.71875 101.210938 254.871094 100.578125 254.949219 99.9375 C 255.042969 99.171875 255.109375 98.402344 255.132812 97.625 C 255.183594 96.089844 255.296875 94.566406 255.476562 93.039062 C 255.519531 92.636719 255.601562 92.242188 255.671875 91.839844 C 255.839844 90.820312 256.660156 90.695312 257.351562 91.023438 C 257.78125 91.234375 258.128906 91.542969 258.4375 91.914062 C 259.515625 93.195312 260.6875 94.394531 261.785156 95.652344 C 262.625 96.613281 263.421875 97.617188 264.234375 98.605469 C 264.335938 98.734375 264.429688 98.78125 264.609375 98.746094 C 265.265625 98.613281 265.9375 98.519531 266.597656 98.402344 C 266.964844 98.332031 267.328125 98.238281 267.6875 98.144531 C 268.328125 97.964844 268.964844 97.773438 269.609375 97.605469 C 270.316406 97.421875 271.035156 97.269531 271.742188 97.09375 C 271.984375 97.03125 272.234375 97 272.46875 96.890625 C 272.761719 96.75 273.082031 96.78125 273.390625 96.746094 C 273.945312 96.679688 274.5 96.605469 275.066406 96.605469 C 275.386719 96.609375 275.679688 96.699219 275.917969 96.941406 C 276.21875 97.230469 276.300781 97.582031 276.132812 97.96875 C 275.925781 98.441406 275.632812 98.867188 275.320312 99.273438 C 274.179688 100.769531 272.796875 102.054688 271.523438 103.441406 C 271.070312 103.9375 270.625 104.449219 270.171875 104.941406 C 270.070312 105.050781 270.054688 105.125 270.152344 105.246094 C 270.875 106.109375 271.371094 107.121094 271.851562 108.125 C 272.460938 109.410156 273.074219 110.703125 273.660156 112 C 274.046875 112.835938 274.4375 113.667969 274.671875 114.5625 C 274.777344 114.957031 274.964844 115.316406 275.136719 115.683594 C 275.363281 116.164062 275.332031 116.578125 275.027344 116.863281 C 274.867188 117.011719 274.671875 117.066406 274.460938 117.085938 C 273.863281 117.148438 273.316406 117.015625 272.757812 116.8125 C 272.066406 116.558594 271.445312 116.15625 270.769531 115.871094 C 269.058594 115.136719 267.378906 114.332031 265.722656 113.480469 C 265.609375 113.421875 265.527344 113.425781 265.433594 113.503906 C 265.234375 113.691406 265.03125 113.867188 264.847656 114.078125 C 264.296875 114.714844 263.78125 115.375 263.179688 115.960938 C 262.320312 116.808594 261.570312 117.757812 260.820312 118.703125 C 259.925781 119.824219 258.996094 120.917969 258.003906 121.953125 C 257.765625 122.199219 257.515625 122.441406 257.238281 122.660156 C 256.695312 123.101562 256.101562 122.96875 255.824219 122.324219 C 255.707031 122 255.625 121.671875 255.480469 121.417969 Z M 255.480469 121.417969 " fill-opacity="1" fill-rule="nonzero"/></g></g></g><g clip-path="url(#456dee869f)"><g clip-path="url(#e3f3bc7b6f)"><g clip-path="url(#700ff487bd)"><path fill="#ffc31f" d="M 190.246094 262.527344 C 190.5 261.945312 190.851562 261.503906 191.183594 261.054688 C 192.082031 259.78125 193.132812 258.632812 193.976562 257.324219 C 194.691406 256.226562 195.527344 255.246094 196.339844 254.230469 C 196.839844 253.613281 197.269531 252.933594 197.738281 252.28125 C 197.851562 252.136719 197.867188 252 197.753906 251.863281 C 197.164062 251.105469 196.875 250.191406 196.457031 249.34375 C 195.871094 248.144531 195.207031 246.984375 194.511719 245.847656 C 193.847656 244.757812 193.265625 243.625 192.648438 242.507812 C 192.152344 241.585938 191.671875 240.65625 191.28125 239.679688 C 191.128906 239.308594 190.976562 238.933594 190.964844 238.523438 C 190.957031 238.355469 190.875 238.207031 190.8125 238.058594 C 190.558594 237.433594 190.742188 236.722656 191.230469 236.390625 C 191.386719 236.285156 191.5625 236.246094 191.738281 236.21875 C 192.203125 236.160156 192.667969 236.195312 193.109375 236.359375 C 193.242188 236.410156 193.371094 236.445312 193.507812 236.453125 C 194.332031 236.492188 195.109375 236.703125 195.890625 236.984375 C 196.960938 237.363281 198.03125 237.753906 199.09375 238.152344 C 199.761719 238.402344 200.433594 238.632812 201.085938 238.914062 C 202.300781 239.414062 203.5 239.921875 204.707031 240.445312 C 205.128906 240.628906 205.527344 240.871094 205.929688 241.105469 C 206.027344 241.152344 206.09375 241.164062 206.164062 241.074219 C 206.726562 240.386719 207.429688 239.84375 208.058594 239.230469 C 208.8125 238.496094 209.542969 237.730469 210.230469 236.925781 C 211.601562 235.335938 213.023438 233.816406 214.523438 232.347656 C 214.914062 231.957031 215.339844 231.601562 215.757812 231.234375 C 216.808594 230.296875 217.789062 230.863281 218.242188 231.804688 C 218.519531 232.398438 218.625 233.023438 218.636719 233.679688 C 218.6875 235.964844 218.90625 238.246094 218.996094 240.519531 C 219.066406 242.265625 219.054688 244.011719 219.074219 245.761719 C 219.074219 245.980469 219.132812 246.109375 219.355469 246.226562 C 220.167969 246.648438 220.957031 247.121094 221.761719 247.5625 C 222.210938 247.800781 222.679688 248.011719 223.140625 248.21875 C 223.972656 248.582031 224.816406 248.921875 225.644531 249.289062 C 226.554688 249.703125 227.449219 250.152344 228.351562 250.574219 C 228.660156 250.714844 228.957031 250.894531 229.300781 250.976562 C 229.726562 251.082031 230.046875 251.386719 230.402344 251.613281 C 231.046875 252.019531 231.703125 252.417969 232.304688 252.898438 C 232.640625 253.179688 232.875 253.523438 232.921875 253.984375 C 232.992188 254.546875 232.777344 254.992188 232.269531 255.257812 C 231.644531 255.585938 230.972656 255.789062 230.292969 255.953125 C 227.796875 256.570312 225.226562 256.75 222.6875 257.140625 C 221.78125 257.277344 220.871094 257.4375 219.964844 257.578125 C 219.765625 257.605469 219.683594 257.667969 219.6875 257.882812 C 219.714844 259.421875 219.375 260.917969 219.03125 262.398438 C 218.578125 264.285156 218.121094 266.183594 217.636719 268.066406 C 217.332031 269.285156 217.035156 270.507812 216.523438 271.65625 C 216.296875 272.167969 216.1875 272.710938 216.054688 273.246094 C 215.882812 273.949219 215.496094 274.367188 214.929688 274.410156 C 214.628906 274.425781 214.378906 274.320312 214.136719 274.160156 C 213.449219 273.714844 212.976562 273.105469 212.558594 272.410156 C 212.042969 271.550781 211.726562 270.589844 211.25 269.710938 C 210.058594 267.464844 208.960938 265.171875 207.929688 262.847656 C 207.859375 262.691406 207.765625 262.621094 207.601562 262.628906 C 207.230469 262.652344 206.863281 262.667969 206.484375 262.734375 C 205.355469 262.941406 204.242188 263.203125 203.105469 263.3125 C 201.464844 263.480469 199.855469 263.84375 198.246094 264.210938 C 196.335938 264.636719 194.410156 265 192.46875 265.253906 C 192.003906 265.3125 191.53125 265.355469 191.054688 265.351562 C 190.097656 265.355469 189.582031 264.707031 189.832031 263.785156 C 189.988281 263.339844 190.179688 262.921875 190.246094 262.527344 Z M 190.246094 262.527344 " fill-opacity="1" fill-rule="nonzero"/></g></g></g><g clip-path="url(#7ea4f77118)"><g clip-path="url(#3a6858e150)"><g clip-path="url(#7097315009)"><path fill="#5b5f97" d="M 253.207031 145.863281 C 242.355469 138.195312 225.804688 124.085938 218.832031 118.058594 C 218.390625 117.675781 217.894531 117.390625 217.34375 117.195312 C 216.796875 117 216.230469 116.910156 215.644531 116.929688 C 215.0625 116.949219 214.503906 117.070312 213.96875 117.300781 C 213.433594 117.53125 212.957031 117.847656 212.539062 118.257812 C 199.847656 130.71875 182.609375 143.195312 176.492188 147.503906 C 175.804688 147.988281 175.289062 148.617188 174.945312 149.386719 C 174.597656 150.152344 174.472656 150.957031 174.566406 151.792969 C 176.820312 172.410156 172.191406 194.984375 170.15625 203.535156 C 169.890625 204.652344 169.398438 205.660156 168.6875 206.558594 C 167.976562 207.457031 167.105469 208.164062 166.082031 208.679688 L 145.414062 219.050781 C 144.539062 219.492188 143.71875 220.027344 142.964844 220.652344 C 142.207031 221.277344 141.53125 221.984375 140.933594 222.765625 C 140.335938 223.542969 139.835938 224.382812 139.429688 225.277344 C 139.023438 226.171875 138.722656 227.101562 138.527344 228.066406 L 134.679688 247.128906 C 134.328125 248.878906 133.527344 250.390625 132.285156 251.667969 C 128.097656 255.957031 115.832031 273.679688 106.527344 283.210938 C 104.789062 284.992188 107.066406 287.773438 109.160156 286.425781 C 120.988281 278.796875 136.003906 264.109375 142.363281 260.457031 C 143.515625 259.800781 144.472656 258.929688 145.238281 257.84375 C 146.003906 256.761719 146.503906 255.5625 146.738281 254.257812 C 147.855469 247.886719 149.882812 241.769531 151.335938 237.875 C 151.867188 236.441406 152.628906 235.148438 153.621094 233.988281 C 154.609375 232.828125 155.773438 231.875 157.101562 231.125 C 163.621094 227.457031 172.882812 223.378906 178.351562 221.0625 C 179.023438 220.777344 179.640625 220.40625 180.207031 219.949219 C 180.773438 219.492188 181.265625 218.964844 181.683594 218.367188 C 182.101562 217.773438 182.425781 217.128906 182.664062 216.441406 C 182.902344 215.75 183.035156 215.042969 183.074219 214.316406 C 183.984375 196.296875 187.003906 178.640625 192.128906 161.34375 C 193.675781 156.121094 196.273438 151.488281 199.921875 147.445312 C 207.300781 139.367188 215.132812 138.453125 220.519531 139.171875 C 222.914062 139.480469 225.15625 140.242188 227.246094 141.453125 C 229.335938 142.660156 231.109375 144.230469 232.570312 146.152344 C 240.160156 156.289062 229.878906 166.152344 229.878906 166.152344 C 224.632812 171.042969 215.839844 170.332031 211.808594 169.679688 C 211.546875 169.636719 211.289062 169.652344 211.039062 169.726562 C 210.785156 169.800781 210.558594 169.921875 210.363281 170.097656 C 210.164062 170.273438 210.015625 170.484375 209.910156 170.726562 C 209.808594 170.96875 209.765625 171.222656 209.777344 171.484375 L 210 176.339844 C 210.027344 176.9375 210.289062 177.398438 210.792969 177.726562 L 223.144531 185.757812 C 223.421875 185.9375 223.714844 186.089844 224.019531 186.214844 C 224.324219 186.339844 224.640625 186.433594 224.964844 186.5 C 225.285156 186.566406 225.613281 186.601562 225.945312 186.605469 C 226.273438 186.609375 226.601562 186.582031 226.929688 186.527344 C 227.253906 186.46875 227.570312 186.378906 227.878906 186.261719 C 228.1875 186.144531 228.484375 186 228.765625 185.828125 C 229.046875 185.65625 229.308594 185.457031 229.554688 185.234375 C 229.796875 185.011719 230.019531 184.769531 230.21875 184.503906 L 254.253906 152.46875 C 254.441406 152.21875 254.601562 151.953125 254.734375 151.671875 C 254.871094 151.390625 254.972656 151.097656 255.050781 150.792969 C 255.125 150.492188 255.167969 150.183594 255.179688 149.875 C 255.195312 149.5625 255.175781 149.25 255.128906 148.945312 C 255.078125 148.636719 255 148.335938 254.890625 148.042969 C 254.78125 147.75 254.644531 147.472656 254.480469 147.207031 C 254.316406 146.941406 254.125 146.699219 253.910156 146.472656 C 253.695312 146.246094 253.460938 146.042969 253.207031 145.863281 Z M 253.207031 145.863281 " fill-opacity="1" fill-rule="nonzero"/></g></g></g><g clip-path="url(#2a6b535d5e)"><g clip-path="url(#bea6b6db2e)"><g clip-path="url(#df877c98b9)"><path fill="#5b5f97" d="M 217.769531 163.164062 C 218.308594 163.140625 218.835938 163.0625 219.359375 162.933594 C 219.878906 162.804688 220.382812 162.628906 220.871094 162.398438 C 221.355469 162.171875 221.816406 161.898438 222.246094 161.578125 C 222.679688 161.261719 223.078125 160.902344 223.441406 160.507812 C 223.800781 160.109375 224.121094 159.679688 224.398438 159.222656 C 224.675781 158.761719 224.90625 158.277344 225.089844 157.773438 C 225.273438 157.269531 225.402344 156.75 225.484375 156.21875 C 225.566406 155.6875 225.59375 155.15625 225.566406 154.617188 C 225.542969 154.082031 225.46875 153.550781 225.339844 153.03125 C 225.210938 152.507812 225.03125 152.003906 224.804688 151.519531 C 224.574219 151.03125 224.300781 150.574219 223.984375 150.140625 C 223.664062 149.707031 223.304688 149.3125 222.910156 148.949219 C 222.511719 148.585938 222.085938 148.265625 221.625 147.988281 C 221.164062 147.710938 220.683594 147.480469 220.175781 147.300781 C 219.671875 147.117188 219.152344 146.984375 218.621094 146.902344 C 218.089844 146.824219 217.558594 146.796875 217.019531 146.820312 C 216.484375 146.84375 215.957031 146.921875 215.433594 147.050781 C 214.914062 147.179688 214.410156 147.359375 213.921875 147.585938 C 213.4375 147.8125 212.976562 148.085938 212.542969 148.40625 C 212.113281 148.722656 211.714844 149.082031 211.351562 149.480469 C 210.992188 149.875 210.671875 150.304688 210.394531 150.765625 C 210.113281 151.222656 209.886719 151.707031 209.703125 152.210938 C 209.519531 152.714844 209.386719 153.234375 209.308594 153.765625 C 209.226562 154.296875 209.199219 154.832031 209.222656 155.367188 C 209.25 155.902344 209.324219 156.433594 209.453125 156.953125 C 209.582031 157.476562 209.761719 157.980469 209.988281 158.464844 C 210.21875 158.953125 210.492188 159.410156 210.808594 159.84375 C 211.128906 160.277344 211.484375 160.675781 211.882812 161.035156 C 212.277344 161.398438 212.707031 161.71875 213.167969 161.996094 C 213.628906 162.273438 214.109375 162.503906 214.613281 162.6875 C 215.121094 162.867188 215.636719 163 216.167969 163.082031 C 216.699219 163.160156 217.234375 163.191406 217.769531 163.164062 Z M 217.769531 163.164062 " fill-opacity="1" fill-rule="nonzero"/></g></g></g></svg>